<svg width="17" height="15" viewBox="0 0 17 15" fill="none" xmlns="http://www.w3.org/2000/svg">
<path d="M8.63155 0.386719L9.68535 0.529704C10.4346 0.679838 11.1638 0.971526 11.8716 1.40477L12.4221 1.77224L12.9211 2.17403L13.5417 2.79315L13.9635 3.29932L14.3567 3.87269L14.8972 4.9608L15.0001 5.22818L15.2303 6.01746C15.2418 6.0575 15.2561 6.05893 15.2718 6.01889C15.379 5.74722 15.4362 5.38547 15.7522 5.28824C15.9181 5.23819 16.0225 5.34114 16.1168 5.46554C16.2212 5.59851 16.2255 5.77153 16.1297 5.98314L16.0911 6.10182L15.7422 7.04838C15.5849 7.48448 15.4834 7.91201 15.2532 8.07072L15.1002 8.11076C15.0587 8.10075 15.0116 8.10075 14.9601 8.11219L14.075 7.34293L13.709 7.01549C13.433 6.79387 12.8439 6.38207 13.4416 6.04749C13.586 5.99887 13.7004 6.01031 13.7833 6.08037C14.0436 6.302 14.3052 6.52363 14.5683 6.74668C14.6012 6.77528 14.6141 6.7667 14.6041 6.72524L14.4411 5.95741C14.2366 5.18958 13.902 4.48323 13.4402 3.84123L12.9197 3.20352L12.4707 2.76027L11.9245 2.31701C11.2782 1.84659 10.5561 1.50772 9.75685 1.30039L8.63155 1.12738L7.58347 1.14168L6.49535 1.32899L5.66317 1.63498L5.40866 1.73078C5.00544 1.92095 4.64225 2.14114 4.32054 2.3928L3.92876 2.70021L3.2553 3.39369L2.90069 3.84123C2.66762 4.14722 2.46173 4.50325 2.28585 4.91076L2.18147 5.15669L1.8955 5.99029L1.71248 7.06983L1.72106 8.14364L1.90408 9.23891L2.12857 9.9138L2.29729 10.3313C2.4703 10.736 2.68335 11.102 2.93501 11.4309L3.24386 11.8226L3.92018 12.509L4.32626 12.835C4.62224 13.0695 4.97541 13.2797 5.38292 13.4655L5.64601 13.5842L6.46246 13.873C6.82993 13.9846 7.21027 14.0503 7.60348 14.0718C7.81224 14.0847 8.02243 14.1033 8.23548 14.1261C8.45854 14.1504 8.57293 14.3063 8.58007 14.5923C8.48999 14.7567 8.36417 14.8468 8.20402 14.8611C8.02958 14.8768 7.81367 14.8697 7.55487 14.8368L6.53109 14.6738C5.78757 14.5007 5.0755 14.2091 4.39346 13.7973L3.88872 13.4612L3.3082 12.9823L2.73197 12.3932L2.27155 11.8112L1.97414 11.3537C1.57665 10.6816 1.2921 9.97528 1.12052 9.23748L0.960378 8.15365L0.9375 7.07698L1.10193 6.01603L1.24778 5.44838L1.43795 4.94364L1.97272 3.86411L2.25583 3.43087L2.76199 2.80459L3.34538 2.22407L3.91446 1.75222L4.3377 1.46625C5.00973 1.05303 5.72894 0.754189 6.49392 0.568309L7.61492 0.399587L8.63155 0.388149V0.386719Z" fill="url(#paint0_linear_718_815)"/>
<defs>
<linearGradient id="paint0_linear_718_815" x1="8.56799" y1="0.386719" x2="8.56799" y2="14.8691" gradientUnits="userSpaceOnUse">
<stop/>
<stop offset="1"/>
</linearGradient>
</defs>
</svg>
