<svg width="9" height="19" viewBox="0 0 9 19" fill="none" xmlns="http://www.w3.org/2000/svg">
<path d="M7.66689 1.52166C6.47439 1.49878 6.46009 4.31129 6.43578 5.06625C6.43006 5.24355 6.28422 5.38368 6.10835 5.38225H6.01255C5.74802 5.38082 5.61076 5.24784 5.60361 4.98189C5.57501 3.90379 5.69369 2.94865 5.95821 2.11791C6.06831 1.77331 6.25562 1.44731 6.52157 1.13989C7.12497 0.439263 8.61488 0.430684 8.59343 1.66893C8.56627 3.22318 8.4719 4.96759 8.31318 6.90218C8.25456 7.60423 8.1702 8.09324 7.87708 8.75812C7.24937 10.178 6.55732 11.5663 5.7995 12.9204C5.55785 13.3537 5.22326 13.6982 4.79717 13.9528C3.17857 14.9208 1.73728 15.7501 1.72012 17.9106C1.71869 18.0922 1.56855 18.2352 1.38696 18.2294L1.28115 18.2251C1.05238 18.218 0.870785 18.0264 0.875074 17.7976C0.907961 15.3812 2.4136 14.4003 4.30387 13.2693C4.85579 12.939 5.08171 12.4414 5.39056 11.878C6.0726 10.6327 6.6903 9.3558 7.24222 8.04748C7.32229 7.85874 7.37234 7.66143 7.39379 7.45553C7.58968 5.55812 7.70406 3.60352 7.73838 1.59315C7.73838 1.55311 7.70692 1.52166 7.66832 1.52166H7.66689Z" fill="black"/>
</svg>
