<svg width="28" height="21" viewBox="0 0 28 21" fill="none" xmlns="http://www.w3.org/2000/svg">
<path d="M11.575 2.92885C12.2255 3.20624 12.8704 3.21053 13.5067 2.94315C13.694 2.86451 13.8341 2.83305 13.9299 2.84735C14.4933 2.936 14.5276 3.65378 14.0143 3.88542C12.4715 4.58318 10.6699 4.12849 9.73616 2.7015C9.64608 2.56424 9.55028 2.457 9.4459 2.38122C8.05036 1.3503 6.1701 0.711156 4.50718 1.29453C3.18313 1.76066 2.1422 2.82304 1.57312 4.10847C1.49447 4.28292 1.40868 4.39873 1.31574 4.45736C1.02548 4.63323 0.569358 4.45307 0.512163 4.11419C0.492145 3.99838 0.522172 3.84967 0.600814 3.66665C1.66749 1.21875 4.11969 -0.388398 6.8407 0.0848821C7.81014 0.253604 8.71667 0.611066 9.55886 1.15584C10.3553 1.67201 10.8843 2.23394 11.8452 1.57907C13.2893 0.593908 14.9079 -0.17535 16.7081 0.0348374C20.0683 0.426616 22.1945 3.61232 22.0443 6.86665C22.0443 6.89382 22.0558 6.91098 22.0815 6.9167C24.2435 7.49578 25.7977 8.74547 26.7443 10.6672C28.7446 14.7294 26.3196 19.7038 21.8613 20.556C19.9239 20.9263 18.1265 20.5289 16.4693 19.3621C16.4408 19.3421 16.4021 19.3549 16.3893 19.3864C15.7701 21.1265 13.5267 21.4625 12.563 19.8425C12.4486 19.6509 12.3571 19.3893 12.2856 19.0561C11.8767 17.1344 11.4691 15.2155 11.0645 13.2952C11.0545 13.2495 10.9887 13.2495 10.9787 13.2952C10.5812 15.1655 10.1837 17.04 9.78763 18.9217C9.72758 19.2062 9.6661 19.5265 9.52311 19.7725C9.07271 20.5546 8.40925 20.9206 7.53561 20.8692C6.6205 20.8148 6.07573 20.3072 5.70683 19.5194C5.02193 18.0609 4.32273 16.6082 3.61209 15.1612C3.00297 13.9215 2.41387 12.8348 1.84622 11.904C1.22137 10.8788 0.83674 10.1353 0.489286 9.14011C0.429232 8.96853 0.406354 8.83126 0.423512 8.72688C0.482136 8.34797 1.00832 8.16781 1.27857 8.40517C1.36436 8.47952 1.44729 8.63251 1.52736 8.86129C1.80761 9.662 2.12933 10.3498 2.49108 10.926C3.27035 12.1671 3.88805 13.2552 4.34275 14.186C5.00048 15.5315 5.79977 17.2073 6.7449 19.2134C7.06662 19.8969 7.99888 20.0341 8.46931 19.4307C8.57083 19.3006 8.65519 19.0847 8.71953 18.7801C9.1013 16.98 9.4845 15.1798 9.86628 13.3796C9.94635 13.005 10.0436 12.7462 10.1594 12.6032C10.677 11.9626 11.7136 12.1113 12.0425 12.8506C12.0754 12.9249 12.144 13.2066 12.247 13.6942C12.6002 15.3528 12.9519 17.0114 13.3036 18.6715C13.378 19.0218 13.4538 19.2563 13.5324 19.3778C13.9028 19.9469 14.7335 19.9426 15.1725 19.4279C15.2711 19.312 15.4027 19.0389 15.5657 18.6086C15.5757 18.5828 15.5714 18.5599 15.5528 18.5414C14.1387 17.0243 13.5024 15.2227 13.6468 13.138C13.9056 9.41464 17.2086 6.55065 20.9033 6.77228C20.9319 6.77371 20.9477 6.76084 20.9491 6.73082C20.9805 6.25611 20.9734 5.89007 20.9319 5.63269C20.5487 3.31348 18.8644 1.2688 16.4336 1.08006C15.1253 0.978537 13.7269 1.57049 12.6659 2.31973C12.2684 2.60141 11.9925 2.75441 11.5778 2.88309C11.5592 2.88881 11.5578 2.91598 11.5764 2.92313M18.1122 8.3637C13.9457 10.2711 13.5081 16.0377 17.2758 18.6014C20.9562 21.1065 25.9035 18.7029 26.3568 14.3119C26.6199 11.7625 25.17 9.29739 22.8179 8.29936C21.2379 7.62876 19.6694 7.65021 18.1122 8.36227V8.3637Z" fill="url(#paint0_linear_718_37)"/>
<defs>
<linearGradient id="paint0_linear_718_37" x1="13.9355" y1="0" x2="13.9355" y2="20.8919" gradientUnits="userSpaceOnUse">
<stop/>
<stop offset="1"/>
</linearGradient>
</defs>
</svg>
