<svg width="22" height="32" viewBox="0 0 22 32" fill="none" xmlns="http://www.w3.org/2000/svg">
<path d="M11.1729 0.0528848C11.8263 0.213028 12.364 0.527594 12.7843 0.999444L12.8287 1.04663C13.0918 1.37549 13.2934 1.74725 13.4306 2.16477L13.5607 2.88398C13.5665 2.91258 13.5836 2.92831 13.6136 2.92831H14.9377L16.0129 2.94261C16.715 3.11848 17.1254 3.5746 17.2426 4.30811C17.2483 4.33957 17.2669 4.3553 17.2984 4.3553L19.732 4.36674L20.2367 4.54261C20.5928 4.75851 20.8559 5.05878 21.0246 5.44484C21.1218 5.80659 21.1533 6.18979 21.1204 6.59873L21.1261 7.2679V9.41267L21.1232 10.7667L21.1261 11.6432V26.6581L21.1232 27.9278L21.1261 28.8028V30.1898C21.1433 30.4929 21.0861 30.7889 20.956 31.0792C20.517 31.8756 19.8907 31.9971 18.9685 31.9971C13.1976 32 7.42667 32 1.6572 31.9971C1.56855 31.9971 1.47418 31.9857 1.37266 31.9614C1.25541 31.9342 1.15961 31.9199 1.08383 31.9156C0.614838 31.6911 0.29598 31.3809 0.127257 30.9876C0.0428956 30.7889 0 30.4529 0 29.9796V5.88952C0 5.7494 0.0443255 5.61356 0.0800719 5.47916C0.241645 5.06307 0.527617 4.74279 0.932265 4.52116C1.15103 4.42536 1.35836 4.37675 1.55282 4.37103C2.09045 4.35673 2.86972 4.35673 3.89207 4.37389C3.92495 4.37389 3.94211 4.35816 3.94211 4.32384V4.2595C3.96642 3.97925 4.06937 3.72045 4.24953 3.48166L4.454 3.2729C4.68992 3.07701 4.96017 2.96406 5.26616 2.9326L6.35856 2.92974H7.5096C7.5382 2.9326 7.55535 2.9183 7.55964 2.8897L7.67403 2.17907C7.78842 1.80588 7.97287 1.45128 8.22882 1.11383L8.51765 0.790686C9.29692 0.127237 10.182 -0.118697 11.1729 0.0528848ZM8.49334 2.92688H12.7586C12.7886 2.92688 12.8029 2.91115 12.8001 2.88112C12.7772 2.59658 12.7071 2.33492 12.5899 2.09614C12.4183 1.69578 12.1452 1.37406 11.772 1.13385L11.589 1.02232C11.2873 0.846451 10.9698 0.75494 10.6353 0.749221C9.4113 0.737782 8.42185 1.66146 8.30746 2.87112C8.3046 2.90114 8.31747 2.91973 8.34749 2.92688C8.39182 2.93689 8.439 2.93689 8.49191 2.92688M5.30905 3.68899C4.93729 3.75333 4.71137 3.95923 4.62987 4.30525L4.62415 5.38336V6.43287C4.61271 6.80606 4.56839 7.22071 4.78287 7.50382C4.91298 7.67254 5.09457 7.76834 5.32907 7.78979L6.30709 7.79694H14.8962C15.3709 7.80409 16.1273 7.91562 16.3961 7.4166C16.5434 7.1435 16.5091 6.74314 16.4977 6.41857V5.32759L16.4691 4.22518C16.4104 4.05074 16.2918 3.90204 16.113 3.77621C15.7584 3.6704 15.3509 3.6418 14.8919 3.69328L13.9025 3.68327H6.31281L5.31191 3.68899M0.749244 6.40999V22.5558L0.746384 23.5796V27.8692L0.749244 28.943L0.756393 30.0397C0.712068 30.3371 0.757823 30.6002 0.892229 30.8275C1.07668 31.1049 1.33262 31.2436 1.66006 31.2436C7.60826 31.2422 13.5579 31.2407 19.5061 31.2407C19.6248 31.2407 19.7563 31.2007 19.9022 31.1206C20.2839 30.909 20.4398 30.5473 20.3697 30.0339V28.9544L20.3726 27.8877V19.3101L20.3754 18.2062L20.3726 17.1624V7.49238L20.3697 6.44002C20.3997 5.73796 20.2625 5.14171 19.4846 5.12027C19.3016 5.11598 18.8555 5.11598 18.1463 5.12027H17.2984C17.2669 5.12027 17.2526 5.13456 17.2526 5.16459V5.34761L17.2483 6.44431C17.2769 6.78175 17.2498 7.12491 17.1683 7.47666L17.0296 7.78407C16.4905 8.62196 15.7927 8.54761 14.9277 8.5519H6.37286L5.249 8.54189L5.05883 8.50186C4.74855 8.42894 4.49403 8.27308 4.29385 8.03287C4.15087 7.85128 4.05078 7.66111 3.99216 7.46379L3.94068 6.41857L3.93639 5.34332V5.16745C3.93639 5.13742 3.92209 5.12313 3.89207 5.12313H3.15998L2.06328 5.12599C1.5471 5.08166 1.02378 5.14171 0.820737 5.64216C0.729226 5.86379 0.749244 6.15977 0.753534 6.41285L0.749244 6.40999Z" fill="url(#paint0_linear_718_814)"/>
<defs>
<linearGradient id="paint0_linear_718_814" x1="10.5665" y1="0" x2="10.5665" y2="31.9993" gradientUnits="userSpaceOnUse">
<stop/>
<stop offset="1"/>
</linearGradient>
</defs>
</svg>
