<svg width="11" height="14" viewBox="0 0 11 14" fill="none" xmlns="http://www.w3.org/2000/svg">
<path d="M1.03058 1.98754C1.85704 2.97843 2.70208 3.95216 3.56571 4.91015C3.71299 5.07459 3.88171 5.21757 4.07331 5.34197C4.86545 5.85814 5.65902 6.39148 6.45402 6.9434C6.60415 7.04778 6.64133 7.25367 6.53695 7.40381L6.47976 7.48531C6.32247 7.71123 6.12944 7.74697 5.90067 7.59398C5.08422 7.04349 4.28493 6.51015 3.49994 5.99255C3.30834 5.86529 3.13533 5.71659 2.98376 5.54787C2.08581 4.54983 1.20502 3.53607 0.34282 2.50801C0.229861 2.37503 0.165518 2.24492 0.1455 2.11623C0.114043 1.91033 0.14121 1.72302 0.225572 1.55573C0.869006 0.273156 2.26026 0.912298 3.15248 1.52856C4.0776 2.1677 4.94123 2.88263 5.74052 3.67476C5.8735 3.80631 6.0222 3.91784 6.1895 4.00935C7.87387 4.93732 9.82562 6.36574 10.6163 8.16306C11.0024 9.03955 10.8866 10.2292 10.6649 11.1429C10.5634 11.5575 10.5048 11.8378 10.4905 11.985C10.4633 12.2381 10.4447 12.5241 10.4362 12.8444C10.4204 13.3777 9.58826 13.4092 9.57682 12.7786C9.56682 12.2253 9.63831 11.6519 9.78844 11.0585C9.89282 10.6481 9.95431 10.345 9.97432 10.1505C10.0272 9.62722 10.0415 9.1182 9.87566 8.63491C9.30658 6.97771 7.1332 5.49353 5.6676 4.7014C5.50889 4.61703 5.36733 4.51123 5.24293 4.3854C4.84829 3.98933 1.45954 0.769314 1.01914 1.91462C1.00913 1.94179 1.01342 1.96467 1.03058 1.98611V1.98754Z" fill="black"/>
</svg>
