<svg width="12" height="14" viewBox="0 0 12 14" fill="none" xmlns="http://www.w3.org/2000/svg">
<path d="M10.5679 1.91743C10.1704 0.730659 6.71445 4.01359 6.34125 4.38964C6.21972 4.51261 6.08245 4.61413 5.92803 4.69563C4.4181 5.4992 2.8138 6.66453 1.96018 8.11011C1.56983 8.7707 1.52836 9.39983 1.61844 10.1948C1.63846 10.3635 1.69566 10.6338 1.79146 11.0041C1.92872 11.5375 2.00022 12.1351 2.00879 12.7971C2.01165 13.0674 1.87868 13.2104 1.60987 13.2275L1.5112 13.2333C1.3339 13.2447 1.18091 13.1074 1.17233 12.9301C1.1566 12.6241 1.13515 12.3367 1.10942 12.0694C1.08797 11.852 1.0322 11.5703 0.942122 11.2257C0.759101 10.5208 0.684749 9.87311 0.719065 9.27829C0.856331 6.93191 3.51586 5.09456 5.37038 4.0236C5.55055 3.91922 5.71069 3.79911 5.85224 3.66185C6.62008 2.91833 7.43938 2.23772 8.31159 1.62003C8.87639 1.2211 9.57987 0.763546 10.2776 0.812161C10.9168 0.857916 11.3086 1.21824 11.4501 1.89742C11.4987 2.13191 11.4129 2.30063 11.2542 2.4908C10.3777 3.53888 9.48265 4.56837 8.56754 5.5807C8.41884 5.74514 8.24868 5.88812 8.05851 6.01252C7.26351 6.52869 6.47852 7.05345 5.70211 7.58964C5.35322 7.82986 4.87565 7.48812 5.04867 7.0849C5.08584 6.99768 5.17163 6.90903 5.30318 6.82038C6.03527 6.32136 6.77021 5.83093 7.50945 5.34621C7.70391 5.21895 7.87692 5.07025 8.02991 4.90153C8.89069 3.94782 9.73287 2.97552 10.5565 1.98893C10.5751 1.96891 10.5793 1.9446 10.5708 1.91886L10.5679 1.91743Z" fill="black"/>
</svg>
