<svg width="4" height="5" viewBox="0 0 4 5" fill="none" xmlns="http://www.w3.org/2000/svg">
<path d="M1.60459 0.2265L1.62746 1.01006V1.74643C1.62746 1.77503 1.64033 1.79933 1.66464 1.81506L2.01067 2.06529C2.19083 2.31265 2.23372 2.59147 2.13935 2.89889C2.12934 2.92748 2.13649 2.95322 2.15794 2.9761L3.3247 4.19004C3.22032 4.52891 3.023 4.66189 2.73131 4.5904L2.32094 4.19576L1.73613 3.61095L1.66321 3.53374C1.64319 3.51229 1.61889 3.50657 1.59172 3.51372C1.22139 3.62096 0.896808 3.54232 0.617987 3.27637L0.522186 3.15769C0.314858 2.81739 0.29198 2.47994 0.454983 2.14393L0.572231 1.99665L0.839614 1.81506C0.863922 1.79933 0.875361 1.77646 0.875361 1.74786V1.01292C0.878221 0.811308 0.881081 0.60255 0.882511 0.383784C0.88537 -0.0566097 1.39154 -0.129531 1.60459 0.225071M1.20137 2.78307C1.27858 2.82025 1.37295 2.78307 1.41585 2.69728C1.45731 2.61149 1.42872 2.51283 1.35293 2.47565C1.27572 2.43848 1.18135 2.47565 1.13845 2.56144C1.09699 2.64723 1.12559 2.74589 1.20137 2.78307Z" fill="url(#paint0_linear_718_817)"/>
<defs>
<linearGradient id="paint0_linear_718_817" x1="1.83618" y1="0" x2="1.83618" y2="4.60914" gradientUnits="userSpaceOnUse">
<stop/>
<stop offset="1"/>
</linearGradient>
</defs>
</svg>
