<svg width="4" height="3" viewBox="0 0 4 3" fill="none" xmlns="http://www.w3.org/2000/svg">
<path d="M2.20683 0.511376C2.4685 0.555702 2.68441 0.688678 2.8517 0.911734C3.04473 1.23059 3.07762 1.56947 2.95179 1.92979C2.81023 2.26151 2.56001 2.46312 2.20111 2.53175C1.81791 2.60181 1.4819 2.49458 1.19164 2.21147L1.03864 1.94837C0.924254 1.61522 0.942842 1.29493 1.09441 0.987516L1.18878 0.835952C1.48905 0.551413 1.82935 0.442745 2.20826 0.512808M2.27976 1.51513C2.27547 1.36071 2.13677 1.23917 1.96948 1.24346C1.80219 1.24775 1.66921 1.37643 1.67207 1.53086C1.67636 1.68528 1.81505 1.80682 1.98235 1.80253C2.14964 1.79824 2.28262 1.66955 2.27976 1.51513Z" fill="url(#paint0_linear_718_820)"/>
<defs>
<linearGradient id="paint0_linear_718_820" x1="1.99568" y1="0.492187" x2="1.99568" y2="2.55253" gradientUnits="userSpaceOnUse">
<stop/>
<stop offset="1"/>
</linearGradient>
</defs>
</svg>
