<svg width="4" height="3" viewBox="0 0 4 3" fill="none" xmlns="http://www.w3.org/2000/svg">
<path d="M2.17059 0.556952L2.58954 0.707086C2.91698 0.971608 3.06139 1.31477 3.02422 1.73658C2.95702 2.22129 2.7025 2.52442 2.26211 2.64596C1.81742 2.73318 1.45567 2.61879 1.17828 2.30137C1.06103 2.11978 0.988105 1.92675 0.960938 1.72085C0.973806 0.908694 1.37703 0.521206 2.17059 0.556952ZM2.28927 1.61504C2.28927 1.44489 2.15058 1.30476 1.97899 1.30476C1.80741 1.30476 1.66872 1.44346 1.66872 1.61504C1.66872 1.78662 1.80741 1.92532 1.97899 1.92532C2.15058 1.92532 2.28927 1.78662 2.28927 1.61504Z" fill="url(#paint0_linear_718_818)"/>
<defs>
<linearGradient id="paint0_linear_718_818" x1="1.99543" y1="0.554688" x2="1.99543" y2="2.67425" gradientUnits="userSpaceOnUse">
<stop/>
<stop offset="1"/>
</linearGradient>
</defs>
</svg>
