<svg width="9" height="9" viewBox="0 0 9 9" fill="none" xmlns="http://www.w3.org/2000/svg">
<path d="M6.41735 2.88869C7.1237 2.8987 7.83863 2.81148 8.16749 3.57645C8.35194 4.00397 8.27759 4.78038 8.26901 5.30227C8.26186 5.78127 8.13175 6.10728 7.75284 6.36322C7.38965 6.60772 6.85489 6.58199 6.41306 6.55339C6.38875 6.55196 6.36731 6.57198 6.36731 6.59628C6.36731 7.32694 6.44309 7.99754 5.69956 8.37644C5.27919 8.58949 4.53709 8.5037 4.05094 8.50656C3.35889 8.50656 2.92422 8.20915 2.74834 7.61005C2.66255 7.31693 2.70402 6.93945 2.69687 6.60772C2.69687 6.5777 2.68114 6.56197 2.65111 6.56197C1.91331 6.54624 1.25414 6.64347 0.90097 5.8785C0.826617 5.71836 0.790871 5.48672 0.790871 5.1836C0.790871 4.68887 0.70794 3.97537 0.90383 3.55929C1.25414 2.81863 1.9419 2.88726 2.64682 2.89155C2.67828 2.89155 2.69544 2.87582 2.69544 2.84436C2.70259 2.52122 2.66541 2.1466 2.7369 1.86778C3.01716 0.785383 4.01376 0.952675 4.86453 0.948385C5.22771 0.946956 5.49509 0.984132 5.66811 1.06134C6.43737 1.40594 6.36159 2.10656 6.36731 2.83864C6.36731 2.87153 6.38446 2.88869 6.41735 2.88869ZM3.2731 3.93677C2.84843 3.96251 2.42806 3.96536 2.01197 3.94535C1.92189 3.94106 1.8461 4.01255 1.8461 4.10263V5.35661C1.8461 5.43525 1.91045 5.49959 1.98909 5.49816C2.39088 5.4953 2.79839 5.4953 3.21305 5.49816C3.62198 5.50245 3.77927 5.75982 3.7807 6.15303C3.78213 6.55911 3.78356 6.95518 3.78499 7.34267C3.78499 7.38842 3.82216 7.4256 3.86792 7.4256H5.16623C5.22914 7.4256 5.28062 7.37555 5.27919 7.31264C5.27776 6.92372 5.27919 6.54624 5.28061 6.17877C5.28633 5.62828 5.50796 5.48958 6.05131 5.49387C6.4102 5.49673 6.76195 5.49673 7.10511 5.49387C7.1666 5.49387 7.21521 5.44383 7.21521 5.38377V4.06116C7.21521 3.99968 7.16516 3.94964 7.10368 3.95107C6.68616 3.95393 6.25721 3.9525 5.8211 3.94821C5.40358 3.94249 5.28348 3.62792 5.28205 3.25187C5.27919 2.86724 5.27919 2.48976 5.27919 2.12086C5.27919 2.06796 5.23772 2.02649 5.18481 2.02649H3.87793C3.82502 2.02649 3.78213 2.07082 3.78356 2.12372C3.78499 2.54267 3.78356 2.97019 3.77784 3.40629C3.77498 3.5836 3.71064 3.71371 3.58624 3.82667C3.51332 3.89244 3.40893 3.92819 3.27167 3.93677H3.2731Z" fill="url(#paint0_linear_718_39)"/>
<defs>
<linearGradient id="paint0_linear_718_39" x1="4.53223" y1="0.941406" x2="4.53223" y2="8.52127" gradientUnits="userSpaceOnUse">
<stop/>
<stop offset="1"/>
</linearGradient>
</defs>
</svg>
