<svg width="11" height="11" viewBox="0 0 11 11" fill="none" xmlns="http://www.w3.org/2000/svg">
<path d="M6.74474 1.11397C7.07074 1.21406 7.39532 1.35705 7.7199 1.54579L8.31901 1.96473L8.77513 2.38797L9.23983 2.96992C9.66879 3.61907 9.92759 4.3154 10.0134 5.06321C10.0663 5.44355 10.072 5.81103 10.0291 6.16849L9.92045 6.79333L9.78175 7.22515L9.27272 8.24749L8.78371 8.87519L8.33474 9.30986L7.78567 9.70021C7.43822 9.92041 7.07503 10.0863 6.69755 10.1964L5.98834 10.3651L5.66234 10.4094C4.93883 10.4738 4.21532 10.368 3.49611 10.0891L2.49092 9.53864L2.20066 9.30557L1.38421 8.40334L1.28841 8.25893C1.06392 7.90003 0.890911 7.544 0.767943 7.19226C0.646405 6.83766 0.567763 6.48162 0.529157 6.12273L0.523438 5.08466C0.572053 4.70861 0.659274 4.34114 0.786531 3.98082C0.912358 3.64338 1.0868 3.30593 1.30986 2.96992L1.4314 2.80263C1.63729 2.52237 1.90468 2.23784 2.23211 1.95044L2.50522 1.74311C2.86125 1.50575 3.19727 1.32702 3.51469 1.20548C4.58423 0.793689 5.66091 0.762232 6.74474 1.11111M4.10093 1.786L3.50183 2.01621C2.65964 2.43229 2.02336 3.08288 1.59583 3.96795L1.33417 4.72291L1.26696 5.20191C1.26267 5.23337 1.27697 5.25052 1.30843 5.24909C1.65445 5.24195 2.10915 5.20763 2.11916 5.61228C2.13059 6.07984 1.60584 6.00406 1.30128 5.99977C1.27125 5.99977 1.25695 6.01406 1.26124 6.04409L1.27554 6.17421C1.32416 6.55026 1.42425 6.90343 1.57295 7.23087C1.97188 8.14597 2.6096 8.82658 3.4861 9.27126L3.83641 9.43283C4.17386 9.57724 4.50701 9.65875 4.83445 9.67876C4.86305 9.68019 4.87735 9.66733 4.87592 9.6373C4.8559 9.36277 4.83588 8.97528 5.06609 8.79941C5.22337 8.67787 5.40639 8.72506 5.61372 8.93953L5.6366 9.37278L5.63088 9.64159C5.63088 9.67305 5.64518 9.68734 5.67664 9.68305C6.49022 9.58725 7.21945 9.27126 7.8686 8.73221L8.2132 8.40334C8.83233 7.74418 9.19694 6.96348 9.30561 6.05982C9.30847 6.02979 9.2956 6.01406 9.26557 6.01263L8.62786 5.97117C8.60784 5.97117 8.58782 5.96116 8.57352 5.94543C8.43483 5.79387 8.40337 5.63229 8.47486 5.45928C8.57638 5.21478 8.99962 5.24767 9.27129 5.24624C9.30275 5.24624 9.31562 5.23051 9.31133 5.19905C9.05252 3.57188 8.16315 2.45374 6.64608 1.84463L6.4702 1.79887L5.6795 1.63444C5.64661 1.62729 5.63088 1.64016 5.63231 1.67448L5.63946 1.85178L5.64232 2.19208C5.55653 2.418 5.40925 2.51666 5.20335 2.48806C4.82015 2.43515 4.87449 1.939 4.87735 1.67162C4.87735 1.64016 4.86162 1.62729 4.83159 1.63444L4.10379 1.78743L4.10093 1.786Z" fill="url(#paint0_linear_718_816)"/>
<defs>
<linearGradient id="paint0_linear_718_816" x1="5.29053" y1="0.871094" x2="5.29053" y2="10.4276" gradientUnits="userSpaceOnUse">
<stop/>
<stop offset="1"/>
</linearGradient>
</defs>
</svg>
